<?xml version="1.0" encoding="iso-8859-1" ?>
<svg version="1.1" id="Layer_1" xmlns="http://www.w3.org/2000/svg" xmlns:xlink="http://www.w3.org/1999/xlink" x="0px" y="0px" viewBox="0 0 64 64" style="enable-background:new 0 0 512 512;" xml:space="preserve" width="64" height="64">
<rect id="backgroundrect" width="100%" height="100%" x="0" y="0" fill="#f2e44f" stroke="none" />
<g transform="translate(16, 12), scale(0.6)" width="70%" height="70%">
<path style="fill:#FF4181;" points="270.923,109.304 270.923,441.194 218.704,441.194 194.439,109.304 	" d="M33.865 13.663L33.865 55.15L27.338 55.15L24.305 13.663Z" />
<path style="fill:#FF4181;" points="349.349,70.806 349.349,133.569 297.13,133.569 272.864,102.188 297.13,70.806 	" d="M43.669 8.851L43.669 16.696L37.141 16.696L34.108 12.774L37.141 8.851Z" />
	</g>
<path style="fill: #FF9356; transform: translate(16, 12), scale(0.6) " points="77.516,70.806 77.516,133.569 155.942,133.569 155.942,441.194 218.704,441.194
			218.704,133.569 297.13,133.569 297.13,70.806 " d="M9.69 8.851L9.69 16.696L19.493 16.696L19.493 55.15L27.338 55.15L27.338 16.696L37.141 16.696L37.141 8.851Z" />
</svg>
